<?xml version="1.0" encoding="utf-8"?>
<!-- Svg Vector Icons : http://www.onlinewebfonts.com/icon -->
<!DOCTYPE svg PUBLIC "-//W3C//DTD SVG 1.1//EN" "http://www.w3.org/Graphics/SVG/1.1/DTD/svg11.dtd">
<svg version="1.1" xmlns="http://www.w3.org/2000/svg" xmlns:xlink="http://www.w3.org/1999/xlink" x="0px" y="0px" viewBox="0 0 1000 1000" enable-background="new 0 0 1000 1000" xml:space="preserve">
<metadata> Svg Vector Icons : http://www.onlinewebfonts.com/icon </metadata>
<g><path d="M503.7,934.2L80.2,544.9C34.1,490,10,423.4,10,355C10,195.6,139.7,65.8,299.2,65.8c75.7,0,147.4,29,200.8,80.4c53.4-51.4,125-80.4,200.7-80.4C860.2,65.8,990,195.6,990,355c0,68.2-24.1,134.8-67.9,187.3L503.7,934.2z M299.2,118.9C169,118.9,63.1,224.8,63.1,355c0,56,19.7,110.5,55.5,153.4l384.8,353.4L883.6,506c33.6-40.7,53.3-95.1,53.3-151c0-130.2-106-236.1-236.2-236.1c-70.1,0-135.8,30.3-180.5,83.2l-20.3,24l-20.3-24C435.1,149.2,369.2,118.9,299.2,118.9z"/></g>
</svg>