<?xml version="1.0" encoding="utf-8"?>
<!-- Svg Vector Icons : http://www.onlinewebfonts.com/icon -->
<!DOCTYPE svg PUBLIC "-//W3C//DTD SVG 1.1//EN" "http://www.w3.org/Graphics/SVG/1.1/DTD/svg11.dtd">
<svg version="1.1" xmlns="http://www.w3.org/2000/svg" xmlns:xlink="http://www.w3.org/1999/xlink" x="0px" y="0px" viewBox="0 0 1000 1000" enable-background="new 0 0 1000 1000" xml:space="preserve">
<metadata> Svg Vector Icons : http://www.onlinewebfonts.com/icon </metadata>
<g><path d="M990,935L699.4,644.2c54.5-66.9,87.3-152.4,87.3-245.5C786.7,184,612.8,10,398.3,10C183.9,10,10,184,10,398.7c0,214.6,173.9,388.7,388.3,388.7c93.5,0,179.3-33.1,246.3-88.2L935.1,990L990,935z M398.3,709.6c-171.6,0-310.7-139.1-310.7-310.9c0-171.8,139.1-311,310.7-311c171.6,0,310.7,139.2,310.7,311C709,570.5,569.9,709.6,398.3,709.6z"/></g>
</svg>