<?xml version="1.0" standalone="no"?>
<!DOCTYPE svg >
<svg version="1.0" xmlns="http://www.w3.org/2000/svg"
 width="" height="" viewBox="0 0 1280.000000 1270.000000"
 preserveAspectRatio="xMidYMid meet">
<metadata>
Created by potrace 1.15, written by Peter Selinger 2001-2017
</metadata>
<g transform="translate(0.000000,1270.000000) scale(0.100000,-0.100000)"
fill="#ff5722" stroke="none">
<path d="M4843 12671 c-75 -32 -216 -157 -244 -216 -11 -22 -38 -60 -60 -85
-34 -37 -107 -154 -199 -315 -9 -16 -27 -57 -40 -90 -13 -33 -34 -73 -46 -90
-25 -34 -68 -118 -79 -155 -6 -21 -35 -88 -109 -255 -8 -16 -28 -70 -46 -120
-18 -49 -39 -103 -46 -120 -17 -40 -46 -134 -89 -288 -20 -70 -48 -155 -62
-190 -23 -56 -72 -230 -93 -331 -4 -21 -12 -41 -18 -45 -5 -3 -10 -25 -10 -48
-1 -24 -4 -48 -8 -54 -3 -6 -26 -88 -51 -183 -24 -94 -48 -187 -53 -206 -6
-19 -13 -64 -15 -100 -3 -36 -14 -101 -25 -145 -10 -44 -24 -125 -30 -180 -7
-55 -14 -103 -17 -107 -7 -13 -42 -9 -68 8 -53 35 -65 72 -69 211 -3 70 -9
148 -15 173 -17 74 -49 252 -56 310 -4 30 -15 93 -26 140 -10 47 -39 182 -64
300 -82 390 -115 512 -180 670 -33 78 -50 100 -82 100 -36 0 -34 -35 4 -95 15
-22 27 -51 28 -65 1 -14 14 -48 28 -76 35 -68 91 -239 116 -354 12 -52 30
-133 41 -180 11 -47 20 -101 20 -120 0 -20 4 -40 9 -45 28 -30 148 -782 127
-802 -2 -2 -9 29 -16 69 -6 40 -16 84 -22 98 -6 14 -37 103 -70 199 -54 158
-85 234 -176 431 -33 73 -96 200 -135 275 -15 28 -48 100 -75 160 -80 183
-246 425 -291 425 -15 0 -21 -42 -9 -64 6 -12 61 -97 123 -191 116 -174 225
-355 225 -371 0 -5 51 -117 114 -249 118 -248 185 -414 229 -570 28 -103 42
-199 30 -217 -4 -7 -8 -36 -9 -64 -1 -27 -14 -84 -29 -125 -14 -41 -32 -103
-39 -139 -7 -36 -17 -73 -21 -82 -5 -12 6 -31 39 -66 25 -27 46 -56 46 -65 0
-8 -21 -27 -47 -42 -27 -16 -104 -63 -173 -105 -69 -42 -174 -103 -235 -134
-125 -66 -124 -66 -255 -16 -47 17 -104 36 -126 41 -23 6 -65 26 -95 45 -29
18 -58 34 -63 34 -5 0 -23 10 -40 23 -17 13 -52 34 -78 46 -30 14 -95 70 -176
149 -134 132 -452 494 -452 515 0 12 -70 98 -146 181 -20 21 -42 54 -50 72 -8
19 -19 34 -25 34 -13 0 -59 47 -59 60 0 5 -9 12 -21 15 -11 4 -36 30 -55 58
-19 29 -59 84 -90 122 -30 39 -74 94 -97 124 -23 29 -56 68 -73 85 -17 17 -45
57 -63 89 -18 31 -41 62 -51 67 -10 5 -33 36 -51 67 -44 79 -116 199 -148 248
-15 22 -32 51 -39 65 -6 14 -39 68 -73 120 -103 159 -149 237 -149 253 0 8 -7
20 -16 27 -8 8 -21 27 -28 44 -17 40 -123 146 -146 146 -20 0 -45 -26 -54 -57
-4 -11 -18 -24 -31 -27 -30 -8 -32 -30 -5 -49 14 -10 22 -32 28 -77 7 -44 15
-67 30 -79 11 -9 23 -32 27 -51 4 -19 20 -53 35 -75 15 -22 43 -75 63 -117 20
-43 57 -111 83 -150 26 -40 58 -89 71 -109 27 -41 29 -57 8 -65 -22 -9 -19
-20 24 -77 21 -29 48 -71 60 -95 12 -24 28 -45 35 -48 8 -3 29 -33 47 -67 42
-80 402 -611 499 -737 181 -234 222 -284 300 -365 47 -49 108 -117 135 -150
73 -89 138 -155 152 -155 7 0 21 -13 31 -30 22 -35 210 -210 226 -210 6 0 47
-27 91 -60 44 -33 129 -87 190 -120 140 -77 144 -80 182 -112 17 -14 45 -29
61 -33 17 -3 38 -15 47 -25 9 -10 22 -17 29 -14 6 2 29 -5 51 -16 21 -11 47
-20 57 -20 10 0 26 -4 36 -9 9 -5 63 -24 119 -42 72 -23 103 -38 106 -51 4
-14 15 -18 47 -18 42 0 100 -27 170 -80 19 -15 67 -41 105 -59 39 -18 81 -43
95 -56 14 -13 41 -30 60 -38 19 -8 80 -52 135 -97 55 -46 118 -95 140 -109 61
-39 192 -160 223 -206 14 -22 51 -65 82 -95 30 -31 63 -68 73 -83 11 -16 30
-33 44 -38 19 -7 24 -15 20 -29 -5 -19 9 -40 37 -57 7 -5 19 -20 27 -34 22
-41 109 -150 156 -195 24 -23 43 -46 43 -52 0 -6 8 -16 18 -21 20 -11 77 -89
114 -157 26 -47 107 -159 155 -214 18 -20 57 -85 89 -145 31 -60 76 -141 100
-179 24 -39 44 -78 44 -88 0 -10 9 -27 20 -38 11 -11 20 -28 20 -38 0 -11 9
-27 20 -37 11 -10 34 -47 50 -82 17 -36 41 -75 53 -88 12 -12 40 -57 62 -99
22 -42 42 -76 46 -76 3 0 16 -19 29 -42 13 -24 36 -59 52 -78 36 -42 102 -142
143 -216 17 -30 40 -61 52 -69 12 -9 28 -35 34 -58 6 -23 28 -60 49 -83 21
-23 41 -52 45 -65 3 -13 13 -37 20 -54 56 -121 66 -154 71 -225 9 -126 -21
-150 -181 -149 -49 0 -269 -3 -488 -7 -371 -7 -399 -8 -408 -26 -21 -40 3 -80
84 -138 l76 -54 333 -2 c183 -2 354 -7 379 -13 25 -6 119 -13 210 -16 143 -5
167 -8 189 -25 14 -11 41 -31 61 -44 20 -14 51 -44 70 -68 18 -24 54 -68 80
-98 26 -30 59 -84 75 -120 16 -36 47 -94 70 -130 23 -36 54 -90 70 -120 15
-30 42 -77 60 -105 17 -27 39 -74 49 -104 10 -30 28 -70 41 -89 13 -19 24 -40
24 -46 0 -25 64 -144 128 -238 37 -55 72 -109 77 -121 6 -12 32 -62 58 -112
26 -49 59 -115 73 -145 14 -30 34 -73 45 -96 10 -23 19 -46 19 -51 0 -6 8 -21
18 -34 26 -35 109 -218 117 -259 4 -19 20 -63 36 -98 16 -34 29 -78 29 -98 0
-19 5 -45 12 -57 12 -23 38 -271 33 -322 -10 -100 -36 -230 -52 -258 -23 -39
-77 -77 -111 -77 -14 0 -35 9 -47 20 -19 18 -27 19 -66 11 -24 -6 -100 -21
-169 -35 -69 -13 -145 -29 -170 -35 -25 -6 -62 -13 -84 -16 -21 -4 -48 -17
-60 -29 -18 -20 -35 -24 -123 -29 -72 -5 -122 -3 -170 7 -37 8 -120 20 -183
26 -119 13 -157 9 -245 -23 -48 -18 -55 -15 -55 23 0 42 83 114 158 136 65 19
173 22 216 5 39 -15 43 -8 9 15 -22 14 -52 19 -135 22 -60 2 -120 1 -134 -2
-14 -4 -67 -47 -118 -96 -51 -50 -97 -90 -103 -90 -12 0 -33 44 -33 71 0 22
-44 114 -60 124 -16 10 -12 51 8 75 24 30 97 38 140 16 42 -22 41 -7 -1 21
-56 38 -81 39 -133 5 -65 -44 -123 -51 -164 -20 -28 20 -43 23 -122 23 -61 0
-93 -4 -95 -12 -3 -8 10 -10 49 -6 42 4 57 2 67 -11 7 -9 24 -16 36 -16 42 0
55 -12 71 -66 19 -66 11 -138 -18 -159 -27 -18 -48 -9 -48 21 0 26 -10 30 -28
12 -9 -9 -26 4 -71 53 -33 35 -60 72 -61 83 0 16 -5 17 -45 12 -33 -5 -50 -3
-70 10 -23 15 -34 16 -98 4 -103 -18 -103 -18 6 -19 83 -1 105 -5 147 -26 102
-52 164 -135 158 -212 -3 -35 -6 -38 -35 -41 -25 -2 -46 7 -93 40 l-62 43
-166 0 c-113 0 -179 -4 -204 -13 -83 -29 -22 -42 99 -21 150 26 373 -44 373
-117 0 -25 -42 -60 -59 -49 -6 3 -35 -6 -65 -20 l-55 -26 -68 34 c-37 19 -89
42 -114 50 -70 24 -231 37 -319 27 -41 -5 -109 -12 -150 -15 -91 -7 -189 -25
-196 -36 -2 -4 103 -8 233 -7 190 0 254 -3 318 -17 44 -10 96 -21 116 -25 45
-8 59 -17 59 -36 0 -8 -10 -14 -25 -14 -14 0 -47 -13 -73 -30 -64 -39 -119
-39 -232 0 -105 37 -140 37 -208 3 l-53 -27 -62 17 c-64 17 -79 12 -70 -23 3
-12 -5 -25 -23 -37 -23 -15 -52 -19 -154 -21 -270 -5 -263 -5 -276 -31 -7 -13
-22 -28 -34 -35 -13 -6 -23 -15 -23 -21 0 -17 46 -35 88 -35 22 0 69 -9 105
-20 74 -22 123 -25 169 -9 31 11 61 0 61 -22 0 -14 -56 -39 -87 -39 -15 0 -49
-11 -74 -24 -36 -18 -71 -25 -151 -30 -119 -8 -187 -25 -203 -50 -8 -14 -3
-23 25 -47 36 -30 51 -36 178 -64 58 -13 86 -14 145 -6 147 21 220 22 307 7
80 -15 94 -14 229 5 212 31 313 15 279 -44 -13 -24 6 -47 38 -47 13 0 24 -6
24 -13 0 -11 -31 -16 -127 -21 -162 -8 -210 -18 -229 -45 -11 -15 -26 -21 -53
-21 -28 0 -44 -7 -66 -30 l-28 -30 47 -20 c40 -18 67 -21 189 -21 79 0 188 6
247 15 58 9 155 15 215 14 61 0 191 3 290 8 143 8 187 13 215 28 32 18 43 18
165 6 139 -13 276 -15 501 -5 113 4 151 3 185 -10 60 -20 134 -19 196 5 52 19
92 16 107 -8 3 -5 56 -13 118 -16 62 -4 149 -17 193 -28 64 -16 110 -20 232
-19 94 1 154 -2 158 -9 8 -13 325 -12 410 1 33 5 92 12 132 15 68 6 74 5 103
-19 17 -15 46 -29 66 -33 47 -9 154 4 180 21 12 8 47 23 79 33 55 19 101 18
135 -3 29 -18 88 -24 140 -15 30 6 80 14 110 19 30 6 84 17 120 25 88 21 174
21 191 0 23 -28 57 -34 202 -34 171 -1 425 -18 450 -31 9 -5 17 -19 17 -31 0
-16 5 -19 25 -16 17 4 34 -2 51 -17 55 -47 115 -69 189 -69 90 0 207 22 222
41 13 16 22 17 118 8 33 -3 69 -6 80 -6 19 -1 236 8 243 10 2 1 2 16 0 34 l-3
32 110 3 c79 2 126 -2 165 -14 66 -19 83 -20 182 -10 71 7 78 6 99 -15 16 -16
42 -25 95 -32 68 -10 75 -9 87 8 13 17 15 17 38 2 13 -10 32 -17 42 -17 11 0
41 -8 68 -17 39 -14 54 -15 79 -6 22 8 38 8 59 0 27 -10 32 -8 52 17 20 25 26
27 63 21 23 -3 67 -8 99 -11 31 -3 57 -9 57 -12 0 -4 42 -5 94 -4 97 4 128 -2
245 -47 78 -30 138 -37 159 -19 9 9 40 21 67 27 28 7 59 18 70 25 41 26 164
39 245 26 41 -7 122 -14 180 -17 86 -4 103 -3 92 8 -6 7 -41 15 -77 17 -39 3
-65 9 -65 16 0 6 16 31 35 55 19 24 35 50 35 58 0 19 -55 41 -167 64 -53 11
-108 26 -122 33 -29 15 -88 30 -176 47 -33 6 -65 17 -71 25 -12 16 -106 46
-214 70 -181 40 -210 42 -210 19 0 -19 -14 -19 -48 -1 -15 8 -58 21 -96 30
-39 9 -79 25 -90 35 -12 11 -54 33 -95 50 -40 16 -83 38 -95 49 -16 15 -49 21
-151 31 -114 10 -136 15 -177 40 -25 16 -57 32 -70 36 -12 4 -30 13 -38 20
-13 10 -41 25 -130 71 -131 67 -553 82 -785 29 -53 -13 54 50 280 164 191 97
324 150 490 196 33 9 71 21 85 26 49 18 217 48 320 58 130 12 316 0 424 -28
44 -12 89 -21 100 -21 28 0 112 -33 189 -73 34 -17 65 -33 70 -35 4 -2 7 3 7
11 0 40 -220 153 -350 180 -185 38 -552 63 -793 55 -140 -5 -144 -6 -292 -57
-83 -29 -168 -57 -190 -64 -22 -6 -87 -35 -144 -64 -85 -44 -101 -49 -89 -31
16 25 119 103 156 118 13 6 49 27 80 48 31 21 71 45 87 54 17 8 62 34 100 58
111 69 259 134 431 190 87 29 188 65 224 80 36 16 99 38 140 50 41 12 107 33
145 47 39 14 106 30 150 34 44 5 94 14 110 20 17 6 77 15 135 20 158 13 284
-4 415 -57 17 -7 18 -6 7 8 -7 9 -52 36 -100 60 -65 34 -111 49 -182 61 -444
77 -559 74 -833 -22 -62 -21 -177 -60 -257 -85 -80 -26 -186 -66 -236 -90
-220 -105 -583 -361 -717 -506 -31 -33 -57 -56 -57 -49 0 35 48 176 90 264 49
104 150 260 229 355 70 85 209 240 255 286 23 22 58 64 79 92 65 85 399 417
458 454 115 73 221 113 364 138 61 11 136 20 169 20 55 0 61 -2 95 -38 66 -69
111 -134 122 -176 6 -23 17 -54 25 -71 7 -16 18 -52 24 -80 6 -27 14 -59 19
-70 5 -11 12 -28 15 -37 10 -32 35 -20 46 21 12 45 7 62 -47 165 -19 38 -36
80 -38 95 -6 72 -109 205 -184 237 -39 16 -120 18 -223 4 -40 -5 -111 -14
-158 -21 -208 -27 -410 -124 -570 -275 -36 -34 -80 -69 -97 -78 -18 -9 -33
-22 -33 -28 0 -6 -46 -59 -103 -117 -198 -203 -404 -451 -450 -541 -15 -30
-36 -64 -47 -75 -10 -11 -24 -40 -30 -65 -7 -25 -18 -56 -25 -70 -15 -29 -32
-71 -79 -200 -19 -52 -38 -103 -41 -112 -4 -10 -11 -15 -16 -12 -13 8 -11 37
5 86 7 24 23 97 35 163 80 439 93 497 130 615 12 36 34 106 50 155 16 50 34
104 40 120 5 17 22 66 37 110 42 121 213 366 331 475 91 83 158 114 254 118
65 3 85 0 140 -23 108 -46 138 -55 154 -49 12 5 8 14 -22 40 -64 58 -159 107
-206 107 -48 -1 -144 -23 -201 -47 -21 -9 -46 -16 -55 -16 -23 0 -245 -151
-299 -204 -24 -22 -53 -57 -64 -76 -12 -19 -31 -46 -44 -60 -12 -14 -25 -39
-28 -56 -4 -16 -28 -66 -54 -110 -117 -196 -237 -454 -253 -544 -5 -25 -15
-76 -24 -115 -91 -409 -138 -824 -104 -927 6 -20 9 -45 5 -55 -7 -16 -11 -14
-34 15 -15 18 -43 51 -63 72 -21 21 -66 83 -101 137 -153 232 -181 301 -213
513 -20 136 -19 186 4 366 25 187 35 304 27 304 -17 0 -86 -186 -131 -355 -20
-76 -28 -134 -32 -240 -7 -180 6 -276 47 -341 16 -27 34 -72 39 -100 5 -27 18
-64 28 -82 14 -25 16 -35 7 -49 -24 -37 -192 -10 -194 30 0 5 -14 40 -31 79
-54 123 -167 283 -252 358 -25 22 -49 40 -53 40 -4 0 -15 6 -23 14 -9 7 -33
16 -53 19 -34 5 -38 3 -53 -29 -46 -96 -61 -187 -50 -290 9 -86 28 -80 36 12
7 78 44 193 66 201 26 10 62 -16 107 -77 28 -37 47 -76 51 -102 4 -24 16 -59
26 -79 16 -33 53 -168 47 -175 -2 -1 -61 -4 -133 -6 l-130 -3 -57 38 c-54 35
-163 71 -280 91 -21 4 -40 11 -43 16 -3 5 -17 47 -30 92 -14 46 -30 93 -36
105 -13 24 -9 31 49 99 18 21 48 62 66 89 23 36 46 57 82 75 28 14 65 37 82
52 17 14 45 29 62 33 16 4 32 10 35 15 12 20 155 89 215 104 38 10 75 26 89
41 23 23 23 25 8 49 -11 16 -17 46 -17 79 0 46 -3 55 -20 60 -23 6 -27 46 -8
77 10 15 9 23 -6 39 -23 25 -31 25 -116 7 -36 -8 -103 -19 -150 -24 -75 -8
-115 -18 -245 -64 -90 -32 -166 -13 -248 61 -37 34 -107 129 -107 147 0 5 -8
14 -18 20 -10 6 -35 40 -57 75 -21 35 -49 76 -61 91 -12 15 -25 40 -29 56 -3
16 -35 64 -70 108 -36 43 -89 115 -118 159 -30 44 -64 89 -75 99 -12 11 -22
27 -22 36 0 9 -11 27 -25 40 -33 31 -148 224 -165 275 -11 36 -39 98 -151 340
-43 94 -69 176 -69 221 0 18 -3 35 -8 37 -4 3 -7 63 -6 135 0 117 2 132 22
157 21 27 22 34 16 179 l-7 152 40 94 c22 52 53 127 68 165 15 39 33 75 41 81
8 6 14 21 14 33 0 12 29 79 64 149 35 70 76 156 91 192 15 36 54 117 87 180
69 132 112 238 133 328 8 35 35 111 60 170 54 125 55 156 7 160 -24 2 -36 10
-42 27 -6 17 -19 24 -47 28 -21 3 -50 9 -66 12 -23 6 -33 2 -61 -29 -19 -19
-37 -49 -41 -66 -13 -58 -138 -332 -179 -393 -14 -21 -26 -42 -26 -48 0 -14
-92 -187 -127 -239 -15 -23 -37 -57 -48 -74 -11 -18 -43 -61 -71 -97 -28 -35
-64 -89 -79 -119 -34 -68 -77 -114 -131 -140 -25 -13 -60 -44 -90 -83 -92
-117 -134 -153 -198 -173 l-58 -18 -22 27 c-11 15 -40 50 -64 79 -24 30 -49
75 -59 108 -10 30 -27 68 -40 83 -13 16 -23 33 -23 37 0 5 -21 33 -46 62 -26
28 -60 80 -76 115 -16 34 -47 80 -69 101 -24 25 -39 49 -39 64 0 14 -8 36 -18
49 -10 13 -34 52 -52 87 -19 35 -51 78 -72 96 -21 18 -38 41 -38 50 0 10 -20
43 -44 74 -24 32 -47 73 -51 92 -13 60 -81 183 -140 250 -32 36 -66 83 -76
105 -24 51 -79 129 -128 180 -22 23 -45 62 -55 91 -9 27 -41 92 -72 144 -31
52 -58 110 -62 129 -3 20 -14 50 -25 68 -13 24 -21 64 -27 141 -10 123 -8 351
4 370 13 22 36 12 95 -42 72 -66 122 -85 181 -67 54 16 100 82 100 143 0 48
-40 171 -64 197 -9 10 -16 28 -16 40 0 21 3 22 28 15 38 -12 670 -7 822 6 69
7 177 12 241 13 116 2 117 2 158 35 24 19 79 46 128 63 131 44 218 99 247 157
26 51 58 84 120 125 38 25 136 130 155 165 21 40 44 122 51 182 14 117 31 194
52 238 18 39 20 55 14 134 -6 77 -11 96 -34 126 -25 32 -28 46 -33 151 -8 153
-37 236 -118 341 -58 74 -81 127 -81 183 0 36 -32 98 -74 145 -45 50 -74 109
-90 187 -7 36 -20 73 -27 84 -121 162 -212 261 -243 261 -8 0 -30 9 -48 20
-29 17 -36 28 -46 78 -7 33 -30 87 -53 127 -23 37 -52 92 -66 121 -26 58 -53
192 -53 269 0 41 -10 68 -51 145 -60 113 -90 201 -83 239 12 57 -36 198 -88
263 -17 22 -22 45 -26 115 -3 49 -10 96 -18 107 -7 11 -10 31 -7 47 4 21 -1
32 -22 51 -40 34 -67 94 -72 162 -6 82 -36 152 -88 206 -39 41 -75 99 -89 142
-3 9 -28 29 -55 43 -28 14 -58 36 -66 49 -24 36 -59 46 -185 48 -88 2 -131 -1
-182 -16 -66 -19 -67 -19 -93 2 -15 12 -39 38 -54 59 -39 53 -59 69 -111 87
-70 24 -173 19 -247 -13z m-1549 -3790 c21 -66 20 -94 -4 -116 -12 -10 -30
-33 -41 -51 -10 -18 -61 -76 -113 -129 l-93 -98 -46 7 c-26 4 -79 23 -119 43
-39 20 -86 39 -102 43 -70 14 -51 30 314 248 41 25 95 58 119 74 25 15 50 28
57 28 6 0 19 -22 28 -49z m81 -226 c21 -42 41 -78 46 -80 4 -3 22 -31 40 -63
32 -57 83 -111 106 -112 6 0 40 -24 75 -53 85 -72 164 -126 213 -148 62 -27
190 -59 239 -59 60 0 74 -18 58 -73 -7 -23 -17 -75 -23 -116 -11 -83 -23 -111
-45 -111 -17 0 -90 70 -117 113 -22 35 -124 110 -185 137 -25 11 -73 37 -106
58 -34 21 -142 78 -241 127 -99 48 -184 95 -188 102 -5 8 -37 27 -72 43 -34
15 -65 32 -68 37 -10 16 21 64 81 129 31 33 72 80 90 102 18 23 39 42 47 42 7
0 30 -34 50 -75z m954 -539 c20 -19 20 -84 0 -316 -13 -146 -19 -154 -86 -101
-62 49 -78 89 -69 175 6 58 34 226 42 255 6 19 89 9 113 -13z m118 -78 c21
-12 52 -34 68 -49 17 -15 63 -48 103 -74 40 -25 90 -63 111 -83 35 -33 39 -43
44 -102 4 -36 5 -90 3 -120 -2 -30 -7 -128 -11 -217 -4 -90 -12 -163 -16 -163
-13 0 -102 83 -261 241 -134 134 -140 142 -133 172 8 42 27 289 26 347 -1 78
6 83 66 48z m397 -324 c9 -3 16 -12 16 -19 0 -6 28 -42 61 -79 l61 -67 -7
-274 c-7 -275 -7 -275 -29 -275 -27 0 -50 25 -99 107 l-37 61 0 276 c0 161 4
276 9 276 5 0 16 -3 25 -6z m5216 -6558 c0 -2 -7 -6 -15 -10 -8 -3 -15 -1 -15
4 0 6 7 10 15 10 8 0 15 -2 15 -4z"/>
<path d="M12310 1810 c0 -5 5 -10 11 -10 5 0 7 5 4 10 -3 6 -8 10 -11 10 -2 0
-4 -4 -4 -10z"/>
<path d="M5480 1573 c0 -5 7 -16 14 -26 16 -20 30 -8 20 17 -6 16 -34 23 -34
9z"/>
<path d="M11966 1135 c4 -8 8 -15 10 -15 2 0 4 7 4 15 0 8 -4 15 -10 15 -5 0
-7 -7 -4 -15z"/>
</g>
</svg>
